HIERARCHY
ROOT Hips
{
	OFFSET 0.00000 0.00000 0.00000
	CHANNELS 6 Xposition Yposition Zposition Zrotation Yrotation Xrotation 
	JOINT LHipJoint
	{
		OFFSET 0 0 0
		CHANNELS 3 Zrotation Yrotation Xrotation
		JOINT LeftUpLeg
		{
			OFFSET 3.13874 -1.57224 1.49786
			CHANNELS 3 Zrotation Yrotation Xrotation
			JOINT LeftLeg
			{
				OFFSET 2.10955 -5.79594 0.00000
				CHANNELS 3 Zrotation Yrotation Xrotation
				JOINT LeftFoot
				{
					OFFSET 2.41843 -6.64458 0.00000
					CHANNELS 3 Zrotation Yrotation Xrotation
					JOINT LeftToeBase
					{
						OFFSET 0.04713 -0.12948 1.66229
						CHANNELS 3 Zrotation Yrotation Xrotation
						End Site
						{
							OFFSET 0.00000 -0.00000 0.85167
						}
					}
				}
			}
		}
	}
	JOINT RHipJoint
	{
		OFFSET 0 0 0
		CHANNELS 3 Zrotation Yrotation Xrotation
		JOINT RightUpLeg
		{
			OFFSET -3.13988 -1.57224 1.49786
			CHANNELS 3 Zrotation Yrotation Xrotation
			JOINT RightLeg
			{
				OFFSET -2.15006 -5.90725 0.00000
				CHANNELS 3 Zrotation Yrotation Xrotation
				JOINT RightFoot
				{
					OFFSET -2.34496 -6.44273 0.00000
					CHANNELS 3 Zrotation Yrotation Xrotation
					JOINT RightToeBase
					{
						OFFSET -0.08699 -0.23900 1.55223
						CHANNELS 3 Zrotation Yrotation Xrotation
						End Site
						{
							OFFSET -0.00000 -0.00000 0.80281
						}
					}
				}
			}
		}
	}
	JOINT LowerBack
	{
		OFFSET 0 0 0
		CHANNELS 3 Zrotation Yrotation Xrotation
		JOINT Spine
		{
			OFFSET 0.01292 1.96517 -0.16495
			CHANNELS 3 Zrotation Yrotation Xrotation
			JOINT Spine1
			{
				OFFSET 0.02122 1.88666 0.19706
				CHANNELS 3 Zrotation Yrotation Xrotation
				JOINT Neck
				{
					OFFSET 0 0 0
					CHANNELS 3 Zrotation Yrotation Xrotation
					JOINT Neck1
					{
						OFFSET -0.01683 1.81591 0.07903
						CHANNELS 3 Zrotation Yrotation Xrotation
						JOINT Head
						{
							OFFSET 0.00815 1.74013 -0.47700
							CHANNELS 3 Zrotation Yrotation Xrotation
							End Site
							{
								OFFSET -0.00204 1.83225 -0.16933
							}
						}
					}
				}
				JOINT LeftShoulder
				{
					OFFSET 0 0 0
					CHANNELS 3 Zrotation Yrotation Xrotation
					JOINT LeftArm
					{
						OFFSET 3.38482 1.41533 0.19802
						CHANNELS 3 Zrotation Yrotation Xrotation
						JOINT LeftForeArm
						{
							OFFSET 4.32712 -0.00000 0.00000
							CHANNELS 3 Zrotation Yrotation Xrotation
							JOINT LeftHand
							{
								OFFSET 3.28587 -0.00000 -0.00000
								CHANNELS 3 Zrotation Yrotation Xrotation
								JOINT LeftFingerBase
								{
									OFFSET 0 0 0
									CHANNELS 3 Zrotation Yrotation Xrotation
									JOINT LeftHandIndex1
									{
										OFFSET 0.43316 -0.00000 -0.00000
										CHANNELS 3 Zrotation Yrotation Xrotation
										End Site
										{
											OFFSET 0.34922 -0.00000 -0.00000
										}
									}
								}
								JOINT LThumb
								{
									OFFSET 0 0 0
									CHANNELS 3 Zrotation Yrotation Xrotation
									End Site
									{
										OFFSET 0.35456 -0.00000 0.35456
									}
								}
							}
						}
					}
				}
				JOINT RightShoulder
				{
					OFFSET 0 0 0
					CHANNELS 3 Zrotation Yrotation Xrotation
					JOINT RightArm
					{
						OFFSET -3.09725 1.62858 -0.14144
						CHANNELS 3 Zrotation Yrotation Xrotation
						JOINT RightForeArm
						{
							OFFSET -4.29104 -0.00000 0.00000
							CHANNELS 3 Zrotation Yrotation Xrotation
							JOINT RightHand
							{
								OFFSET -3.22720 -0.00000 -0.00000
								CHANNELS 3 Zrotation Yrotation Xrotation
								JOINT RightFingerBase
								{
									OFFSET 0 0 0
									CHANNELS 3 Zrotation Yrotation Xrotation
									JOINT RightHandIndex1
									{
										OFFSET -0.54362 -0.00000 -0.00000
										CHANNELS 3 Zrotation Yrotation Xrotation
										End Site
										{
											OFFSET -0.43828 -0.00000 -0.00000
										}
									}
								}
								JOINT RThumb
								{
									OFFSET 0 0 0
									CHANNELS 3 Zrotation Yrotation Xrotation
									End Site
									{
										OFFSET -0.44497 -0.00000 0.44497
									}
								}
							}
						}
					}
				}
			}
		}
	}
}
MOTION
Frames: 14
Frame Time: 0.0606061
0.00 0.00 0.00 -183.7730 82.0176 -175.4620 0.0000 0.0000 0.0000 -40.6095 -14.9825 11.8310 0.0231 0.9805 2.6951 1.7330 5.7922 -27.5180 10.8716 -17.8717 -62.3640 0.0000 0.0000 0.0000 20.0166 12.7562 -30.4803 -1.7889 -8.4117 23.9719 -1.4260 -13.3932 -30.8878 -0.7244 5.4384 -15.1633 -4.1283 -1.2546 8.1148 1.7768 -1.8494 -9.7529 4.6714 -0.1505 -15.2416 1.7500 -0.7866 -16.4252 -9.5435 2.3086 30.4040 -3.5955 0.2680 13.0591 -0.0000 0.0000 0.0000 -84.3271 6.8323 28.4814 23.8959 -35.0540 -7.6467 -0.0000 -0.0000 7.6325 31.9286 32.1048 18.3238 -7.1250 0.0000 -0.0000 0.0848 66.4538 0.0439 -0.0000 0.0000 0.0000 44.0345 17.2616 -3.5092 -149.8093 41.0563 -108.4653 0.0000 0.0000 4.5698 -59.1638 -8.8290 14.4187 7.1250 -0.0000 -0.0000 -29.9865 -44.4748 -0.4292
0.00 0.00 0.00 -183.2020 77.7364 -173.8810 0.0000 0.0000 0.0000 -41.7697 -15.4013 18.5956 0.0002 -0.0893 -0.2454 1.1620 8.7427 -25.2677 11.3497 -18.1020 -63.9120 0.0000 0.0000 0.0000 11.2837 30.9627 -25.2192 -0.0163 -0.8235 2.2633 -2.0354 -22.3996 -42.2177 -0.3885 4.0025 -11.0837 -6.3763 -1.9677 7.7814 2.3565 -3.0500 -10.1456 6.8337 -0.3847 -15.2642 1.6698 -1.4702 -16.4202 -9.0711 0.9178 28.8450 -3.5458 -0.3225 12.3048 -0.0000 0.0000 0.0000 -85.5636 6.3337 30.1105 25.5001 -36.7108 -8.5871 -0.0000 -0.0000 8.0715 31.9790 33.7010 19.1077 -7.1250 0.0000 -0.0000 -0.7756 68.1549 -0.4313 -0.0000 0.0000 0.0000 39.4502 17.8082 -12.4798 -151.8230 39.2787 -109.7645 0.0000 0.0000 1.4665 -61.2267 -8.3822 14.8667 7.1250 -0.0000 -0.0000 -31.8418 -44.2970 -0.6189
0.00 0.00 0.00 -182.0370 69.1526 -172.0200 0.0000 0.0000 0.0000 -38.0776 -10.9494 26.5229 0.0585 1.5603 4.2920 0.1164 8.4792 -14.1132 12.4296 -18.5664 -67.3441 0.0000 0.0000 0.0000 18.0529 23.3523 -26.9440 -0.3047 -3.5488 9.8107 0.2988 -16.0300 -19.4981 -1.5925 7.9600 -22.5927 -9.2245 -3.6078 6.8065 3.1243 -5.4485 -11.6928 9.7557 -0.9423 -15.8819 -0.5053 -3.1879 -17.1684 -8.0166 -1.4348 27.4769 -3.0819 -1.5217 11.8039 0.0000 0.0000 0.0000 -88.3469 14.1815 25.3229 29.8345 -40.7511 -11.3014 -0.0000 -0.0000 8.6451 33.0472 31.9061 18.9755 -7.1250 0.0000 -0.0000 1.7384 66.5753 0.9042 0.0000 0.0000 0.0000 38.6604 23.7012 -19.0727 -145.8682 44.1822 -105.7951 0.0000 -0.0000 -1.2718 -60.7200 -8.8746 15.3834 7.1250 -0.0000 -0.0000 -31.6797 -44.9769 -0.0201
0.00 0.00 0.00 -178.5250 68.3994 -168.7260 0.0000 0.0000 0.0000 -34.5161 -8.8321 25.5990 0.1803 2.7353 7.5428 -0.3004 10.3487 -7.7647 12.7121 -18.6757 -68.2288 0.0000 0.0000 0.0000 21.9699 18.7687 -27.1589 -0.5973 -4.9477 13.7594 -0.2715 -11.4260 -19.6290 -0.0024 0.3132 -0.8604 -8.4671 -3.7404 5.9495 3.5708 -5.3293 -12.0730 9.7605 -0.9091 -15.8306 -1.8215 -3.3734 -18.0854 -7.6735 -1.2699 28.2788 -2.7605 -1.5601 12.3511 0.0000 0.0000 0.0000 -89.0822 16.2897 22.2859 29.9203 -40.8250 -11.3575 -0.0000 -0.0000 7.4931 34.9013 32.4191 20.5064 -7.1250 0.0000 -0.0000 4.1689 67.6896 2.2758 0.0000 0.0000 0.0000 42.0489 26.7574 -10.2639 -135.6024 50.4700 -98.2268 0.0000 -0.0000 -1.0018 -56.2298 -6.6756 9.8619 7.1250 -0.0000 -0.0000 -25.8400 -40.3807 -3.1897
0.00 0.00 0.00 -176.2300 68.1365 -166.7050 0.0000 0.0000 0.0000 -32.1581 -7.6327 24.3981 0.3156 3.6112 9.9854 -0.4515 11.8501 -3.3127 12.8141 -18.7140 -68.5471 0.0000 0.0000 0.0000 24.3277 16.3124 -26.1840 -0.6334 -5.0922 14.1718 -0.2975 -9.7308 -18.0091 -0.0571 -1.5423 4.2423 -7.9433 -3.7465 5.6322 3.8524 -5.1686 -12.2908 9.7491 -0.8422 -15.9418 -1.5500 -3.2882 -18.0763 -7.8033 -1.1443 28.6775 -2.8510 -1.4873 12.5084 -0.0000 -0.0000 0.0000 -89.2618 17.8351 21.1239 30.3836 -41.2199 -11.6616 -0.0000 -0.0000 6.9611 36.4328 33.7299 22.2876 -7.1250 0.0000 -0.0000 5.9456 69.5843 3.5025 -0.0000 -0.0000 0.0000 41.2668 28.5977 -5.2914 -122.4851 55.6105 -87.7183 0.0000 0.0000 0.0970 -51.2928 -9.0139 11.0624 7.1250 -0.0000 -0.0000 -22.2042 -43.0456 -1.1311
0.00 0.00 0.00 -174.1890 67.8644 -165.2340 0.0000 0.0000 0.0000 -29.4439 -5.9526 22.6222 0.5525 4.7616 13.2299 -0.4452 13.0109 1.2387 12.6106 -18.6370 -67.9117 0.0000 0.0000 0.0000 26.5607 14.2039 -24.2227 -0.5979 -4.9502 13.7665 -0.3175 -8.3655 -16.8061 -0.0317 -1.1488 3.1584 -7.5843 -3.7228 5.5728 4.0810 -5.0285 -12.4295 9.7960 -0.7706 -16.1139 -1.9256 -3.2690 -17.9444 -7.3343 -1.0945 29.1028 -2.6100 -1.4379 12.6649 0.0000 -0.0000 0.0000 -89.4717 19.0159 19.5891 30.8619 -41.6208 -11.9780 -0.0000 -0.0000 7.0199 37.4420 35.0863 23.7564 -7.1250 0.0000 -0.0000 7.0019 71.3709 4.4050 0.0000 -0.0000 0.0000 39.0032 31.6592 -2.0265 -100.8997 59.5463 -69.4250 0.0000 0.0000 3.3258 -49.8857 -11.3005 13.0934 7.1250 -0.0000 -0.0000 -21.6349 -46.0130 0.5674
0.00 0.00 0.00 -160.1810 65.4684 -155.1250 0.0000 0.0000 0.0000 -15.9533 -1.6041 12.8608 3.3018 11.1682 32.8494 -0.3189 22.5162 13.4174 11.9887 -18.3859 -65.9531 0.0000 0.0000 0.0000 37.3058 9.0208 -12.3301 -0.2015 -2.8904 7.9739 -0.5731 -5.4063 -17.2925 -0.0062 -0.5088 1.3981 -3.0483 -3.0578 6.5628 4.7882 -3.3916 -11.7823 7.8041 -0.5071 -16.4647 -2.6336 -3.7520 -18.4841 -4.6127 -2.3188 30.7551 -1.6927 -1.6923 13.4612 -0.0000 -0.0000 0.0000 -86.6227 19.0241 16.8631 33.6686 -43.8377 -13.8830 -0.0000 -0.0000 4.9108 37.7516 34.2790 23.5629 -7.1250 0.0000 -0.0000 7.8858 70.6011 4.8287 -0.0000 -0.0000 0.0000 16.7604 48.2040 9.1685 -25.8434 37.0536 -8.7931 0.0000 0.0000 17.5016 -57.0797 -6.0150 9.1937 7.1250 -0.0000 -0.0000 -26.2760 -39.4602 -3.9067
0.00 0.00 0.00 -154.7190 61.7876 -150.8400 0.0000 0.0000 0.0000 -8.2559 -1.6009 -4.5427 7.9055 16.0493 52.2217 -1.0127 18.3459 -0.8669 11.1890 -18.0263 -63.3937 0.0000 0.0000 0.0000 42.8896 3.3204 -6.0335 -0.0447 -1.3642 3.7514 -0.6892 -3.0476 -17.0785 -0.0169 0.8397 -2.3077 0.8172 -1.6017 7.0129 3.7729 -1.0318 -10.7840 3.9509 -0.0383 -15.9402 -4.3756 -5.4813 -19.5710 -1.1819 -5.5348 29.1711 -0.6108 -2.8816 13.1551 0.0000 -0.0000 0.0000 -81.0075 11.4068 17.3350 37.0855 -46.2452 -16.3018 -0.0000 -0.0000 3.2398 38.8370 32.7637 23.5423 -7.1250 0.0000 -0.0000 10.2019 69.2954 5.9583 0.0000 -0.0000 0.0000 12.2041 48.9428 20.8489 -24.1555 35.3282 -7.7963 0.0000 -0.0000 -0.0313 -40.7390 -23.0996 18.6713 7.1250 -0.0000 -0.0000 -13.6811 -58.8309 4.6806
0.00 0.00 0.00 -155.1780 57.8898 -149.5100 0.0000 0.0000 0.0000 -6.0379 -11.9513 -36.4559 10.1226 17.4782 59.8975 0.6890 7.1044 -19.8399 12.0637 -18.4174 -66.1904 0.0000 0.0000 0.0000 47.2678 2.6144 3.5170 -0.0372 1.2445 -3.4218 -0.9273 -7.2974 -22.2384 -0.2588 3.2728 -9.0391 4.2478 0.6736 6.9013 3.3485 2.5438 -10.3976 0.8055 1.2031 -15.4665 -7.5729 -6.9511 -18.4495 -3.0648 -5.9874 27.8371 -0.8232 -3.6712 12.4917 0.0000 0.0000 0.0000 -78.7468 5.7256 18.0989 43.0830 -49.7940 -20.7641 -0.0000 0.0000 -1.0148 36.5027 28.5602 19.4836 -7.1250 0.0000 -0.0000 7.6791 63.9265 3.5327 0.0000 0.0000 0.0000 21.1546 61.8304 23.2951 -42.9719 49.7353 -20.6793 0.0000 0.0000 13.0960 -39.6837 -12.1182 9.8810 7.1250 -0.0000 -0.0000 -11.6989 -45.2403 0.0704
0.00 0.00 0.00 -153.7910 56.9852 -148.0220 0.0000 0.0000 0.0000 -2.4430 -19.6648 -42.1800 4.8236 13.1823 40.0549 0.4948 8.1518 -18.6858 12.4353 -18.5687 -67.3622 0.0000 0.0000 0.0000 49.5889 1.5434 7.7279 -0.0304 1.1246 -3.0918 -1.2817 -6.4983 -24.6346 -0.2201 3.0200 -8.3345 6.4789 0.9483 7.7427 4.5925 3.4821 -9.7854 0.7460 1.5094 -15.2680 -7.3693 -5.5711 -20.0504 -4.5140 -3.4366 27.3034 -1.0158 -2.7046 12.5273 0.0000 -0.0000 0.0000 -80.2974 9.3589 17.6186 46.0709 -51.2825 -23.0713 -0.0000 0.0000 -2.1202 35.8050 29.4229 19.5127 -7.1250 0.0000 -0.0000 6.5089 64.6837 3.1068 0.0000 -0.0000 0.0000 30.1413 69.2576 37.3552 -52.9001 54.1002 -28.5071 0.0000 0.0000 14.5878 -38.8759 -9.6746 7.7157 7.1250 -0.0000 -0.0000 -10.7154 -42.0841 -0.7807
0.00 0.00 0.00 -153.1880 57.0771 -146.3570 0.0000 0.0000 0.0000 4.8672 -31.1409 -40.8519 0.9412 6.1792 17.3052 -0.5053 15.1943 -14.8904 13.1706 -18.8429 -69.6547 0.0000 0.0000 0.0000 49.9264 -0.1546 9.5854 -0.0009 -0.1883 0.5174 -1.3830 -4.3105 -24.1376 -0.9119 6.0848 -17.0306 9.0410 2.4591 6.7986 3.0642 5.5240 -9.6160 -2.6946 2.1069 -14.0240 -5.2943 -5.6146 -21.7919 -2.2589 -4.9393 27.5109 -0.8089 -2.8873 12.9303 0.0000 -0.0000 0.0000 -77.4348 13.6153 21.9845 43.7118 -50.1215 -21.2455 -0.0000 0.0000 -0.1613 34.8022 28.9529 18.5970 -7.1250 0.0000 -0.0000 5.2718 63.8757 2.4153 0.0000 -0.0000 0.0000 34.4405 66.0093 46.0431 -67.2873 57.9581 -40.4651 0.0000 0.0000 13.6948 -37.4292 -7.1376 5.4324 7.1250 -0.0000 -0.0000 -9.2092 -38.7853 -1.4241
0.00 0.00 0.00 -155.9700 60.7765 -149.7210 0.0000 0.0000 0.0000 -4.6783 -30.7229 -37.0740 1.9895 8.8441 25.3088 -0.4053 11.2481 -3.0175 13.0702 -18.8074 -69.3435 0.0000 0.0000 0.0000 43.8887 -6.3066 11.2677 -0.8784 -5.9749 16.7117 -0.5710 -2.0144 -15.1462 -0.5150 4.5998 -12.7706 7.0147 3.2483 5.6284 2.5621 6.0939 -9.5984 -2.1429 2.5764 -13.2851 -3.8262 -5.0198 -21.6765 -0.3850 -5.1805 29.0787 -0.3800 -2.5273 13.5534 -0.0000 -0.0000 0.0000 -80.0799 24.7952 18.8202 30.6841 -41.4726 -11.8601 -0.0000 -0.0000 8.1635 30.9350 30.1224 16.7395 -7.1250 0.0000 -0.0000 -0.2568 64.0549 -0.1186 -0.0000 -0.0000 0.0000 41.4027 57.1740 67.8360 -69.5986 58.3674 -42.4287 0.0000 0.0000 16.3499 -36.1124 -5.7953 4.2131 7.1250 -0.0000 -0.0000 -7.9761 -37.0358 -1.5751
0.00 0.00 0.00 -165.3720 62.7053 -160.6110 0.0000 0.0000 0.0000 -17.4734 -23.9264 -27.9929 2.7248 10.2357 29.7434 0.0924 2.0859 -6.9089 12.9470 -18.7629 -68.9608 0.0000 0.0000 0.0000 34.0314 -13.8308 4.5196 -3.9903 -12.1475 36.2558 0.9753 -17.5301 -2.7442 -0.0013 -0.2349 0.6454 4.0502 2.7137 6.5668 0.5992 4.5832 -8.6460 -2.4283 1.9621 -12.8439 -4.1756 -6.0857 -20.5152 1.6253 -7.2617 30.6290 0.1180 -3.1164 14.1262 0.0000 -0.0000 0.0000 -81.9060 26.9378 12.8058 21.4562 -32.3570 -6.2923 -0.0000 -0.0000 10.9186 27.8959 28.3069 14.0918 -7.1250 0.0000 -0.0000 -3.1869 61.3106 -1.2665 0.0000 -0.0000 0.0000 50.6818 43.8455 78.1286 -55.9429 55.1282 -30.9882 0.0000 0.0000 22.3741 -36.4974 -5.2329 3.8605 7.1250 -0.0000 -0.0000 -8.2635 -36.3720 -1.7680
0.00 0.00 0.00 -171.7270 66.5412 -166.6580 0.0000 0.0000 0.0000 -23.8837 -19.8164 -19.5348 2.1638 9.1992 26.4204 0.2692 1.8802 -10.6749 12.8188 -18.7158 -68.5619 0.0000 0.0000 0.0000 29.0826 -12.3213 -5.4961 -6.8492 -15.2036 48.3018 1.4829 -22.4920 -17.4741 -0.0297 -1.1116 3.0559 2.4259 3.0561 8.0136 -0.5481 4.6790 -8.3237 -2.8808 2.0438 -13.3721 -4.1937 -6.3349 -18.7279 2.8968 -8.0533 30.6803 0.5421 -3.2704 13.8623 0.0000 -0.0000 0.0000 -82.7689 25.0203 8.5387 16.4504 -26.1276 -3.8422 -0.0000 -0.0000 15.5906 26.3830 22.8222 10.8905 -7.1250 0.0000 -0.0000 -2.8504 55.1187 -0.7086 0.0000 -0.0000 0.0000 52.2050 31.2799 78.3820 -48.8070 52.5029 -25.2245 0.0000 0.0000 23.0286 -37.0590 3.6984 -2.7888 7.1250 -0.0000 -0.0000 -7.8433 -25.3431 -3.7647
